<svg xmlns="http://www.w3.org/2000/svg" width="256" height="256" viewBox="0 0 100 100"><path d="M44.49 43.65L44.49 43.65Q39.51 43.65 36.43 42.58Q33.36 41.50 32.28 39.84L32.28 39.84Q31.80 39.16 31.40 37.79Q31.01 36.43 31.70 34.77L31.70 34.77Q33.07 35.84 34.68 36.38Q36.29 36.91 37.65 37.11L37.65 37.11Q39.32 37.40 40.88 37.40L40.88 37.40Q43.81 37.40 46.59 36.91Q49.37 36.43 52.11 35.55L52.11 35.55Q53.28 29.69 54.40 25Q55.53 20.31 56.99 17.38L56.99 17.38Q58.55 14.16 60.26 11.57Q61.97 8.98 64.07 7.18Q66.17 5.37 68.71 4.39Q71.25 3.42 74.57 3.42L74.57 3.42Q77.01 3.42 78.43 4.39Q79.84 5.37 80.57 6.84Q81.31 8.30 81.45 10.01Q81.60 11.72 81.60 13.18L81.60 13.18Q81.60 16.41 80.04 20.21Q78.48 24.02 75.64 27.73Q72.81 31.45 68.86 34.77Q64.90 38.09 60.02 40.23L60.02 40.23Q58.36 46.68 56.75 52.98Q55.14 59.28 53.57 63.38L53.57 63.38Q52.21 67.19 50.11 71.88Q48.01 76.56 44.98 80.86L44.98 80.86Q46.83 82.03 48.74 83.30Q50.64 84.57 52.60 85.60Q54.55 86.62 56.55 87.30Q58.55 87.99 60.80 87.99L60.80 87.99Q63.14 87.89 65.39 87.30L65.39 87.30Q67.34 86.82 69.49 85.69Q71.64 84.57 73.49 82.52L73.49 82.52Q74.18 83.69 73.93 86.04Q73.69 88.38 72.42 90.72Q71.15 93.07 68.81 94.82Q66.46 96.58 62.95 96.58L62.95 96.58Q59.24 96.58 56.01 95.56Q52.79 94.53 49.96 93.07Q47.13 91.60 44.64 89.89Q42.15 88.18 40.00 86.72L40.00 86.72Q37.07 89.55 33.55 91.31Q30.04 93.07 25.74 93.07L25.74 93.07Q22.32 93.07 20.27 91.16Q18.22 89.26 18.42 86.04L18.42 86.04Q18.51 84.86 19.10 83.25Q19.69 81.64 21.30 80.18Q22.91 78.71 25.74 77.69Q28.57 76.66 33.07 76.66L33.07 76.66Q34.73 76.66 36.24 77.00Q37.75 77.34 39.22 77.83L39.22 77.83Q40.29 75.88 41.37 73.34Q42.44 70.80 43.71 67.58L43.71 67.58Q45.96 61.43 47.62 55.22Q49.28 49.02 50.45 43.16L50.45 43.16Q49.08 43.46 47.57 43.55Q46.05 43.65 44.49 43.65ZM28.28 87.79L28.28 87.79Q29.55 87.30 31.21 86.82Q32.87 86.33 35.02 84.08L35.02 84.08Q33.55 83.59 32.77 83.59L32.77 83.59Q29.26 83.59 27.65 84.62Q26.03 85.64 26.03 86.62L26.03 86.62Q26.03 87.30 26.62 87.65Q27.21 87.99 28.28 87.79ZM65.19 19.82L65.19 19.82Q64.71 21.29 63.92 24.12Q63.14 26.95 62.26 30.66L62.26 30.66Q67.54 27.25 70.71 22.85Q73.89 18.46 73.89 14.06L73.89 14.06Q73.89 11.43 72.32 11.43L72.32 11.43Q70.96 11.43 68.81 13.53Q66.66 15.63 65.19 19.82Z" fill="#bd10e0"></path></svg>